<?xml version="1.0" encoding="utf-8"?>
<!-- Svg Vector Icons : http://www.onlinewebfonts.com/icon -->
<!DOCTYPE svg PUBLIC "-//W3C//DTD SVG 1.1//EN" "http://www.w3.org/Graphics/SVG/1.1/DTD/svg11.dtd">
<svg version="1.1" xmlns="http://www.w3.org/2000/svg" xmlns:xlink="http://www.w3.org/1999/xlink" x="0px" y="0px" viewBox="0 0 256 256" enable-background="new 0 0 256 256" xml:space="preserve">
<metadata> Svg Vector Icons : http://www.onlinewebfonts.com/icon </metadata>
<g><g><path d="M25.4,69.9c0-12.5,10.2-22.6,22.7-22.6s22.6,10.2,22.6,22.6c0,12.5-10.2,22.6-22.6,22.6S25.4,82.4,25.4,69.9z M128,134.5c20.4,0,37-16.6,37-37c0-20.4-16.6-37-37-37c-20.4,0-37,16.6-37,37C91,117.9,107.6,134.5,128,134.5z M208,92.6c12.5,0,22.6-10.2,22.6-22.6c0-12.5-10.2-22.6-22.6-22.6c-12.5,0-22.6,10.2-22.6,22.6C185.3,82.4,195.5,92.6,208,92.6z M85.8,119.2l0.3-0.4l-0.1-0.5c-2-12.7-8.6-22.9-18.6-28.7l-0.7-0.4l-0.6,0.6c-4.8,5-11.2,7.7-18,7.7s-13.3-2.7-18-7.8l-0.6-0.6l-0.7,0.4c-10.1,5.8-16.7,16-18.6,28.7l-0.1,0.5l0.3,0.4c10.1,12.1,23.5,18.7,37.7,18.7C62.3,137.9,75.7,131.3,85.8,119.2z M245.9,118.4c-1.9-12.7-8.6-22.9-18.6-28.7l-0.7-0.4l-0.6,0.6c-4.8,5-11.2,7.8-18,7.8c-6.9,0-13.3-2.7-18-7.8l-0.6-0.6l-0.7,0.4c-10.1,5.8-16.7,16-18.6,28.7l-0.1,0.5l0.3,0.4c10.1,12.1,23.5,18.7,37.7,18.7c14.3,0,27.7-6.6,37.7-18.7l0.3-0.4L245.9,118.4z M159.6,129.8l-1.2-0.7l-0.9,1c-7.8,8.2-18.3,12.7-29.5,12.7c-11.2,0-21.7-4.5-29.5-12.7l-0.9-1l-1.2,0.7c-16.5,9.5-27.3,26.2-30.5,46.9l-0.1,0.8l0.5,0.6c16.4,19.7,38.4,30.6,61.7,30.6c23.3,0,45.2-10.9,61.7-30.6l0.5-0.6l-0.1-0.8C186.9,156,176.1,139.4,159.6,129.8z"/></g></g>
</svg>